<svg width="40" height="40" viewBox="0 0 40 40" fill="none" xmlns="http://www.w3.org/2000/svg">
<rect width="40" height="40" rx="12" fill="url(#paint0_linear_1_1945)"/>
<path d="M25.8333 15.8333V13.3333C25.8333 13.1123 25.7455 12.9004 25.5893 12.7441C25.433 12.5878 25.221 12.5 25 12.5H14.1667C13.7246 12.5 13.3007 12.6756 12.9882 12.9882C12.6756 13.3007 12.5 13.7246 12.5 14.1667C12.5 14.6087 12.6756 15.0326 12.9882 15.3452C13.3007 15.6577 13.7246 15.8333 14.1667 15.8333H26.6667C26.8877 15.8333 27.0996 15.9211 27.2559 16.0774C27.4122 16.2337 27.5 16.4457 27.5 16.6667V20M27.5 20H25C24.558 20 24.134 20.1756 23.8215 20.4882C23.5089 20.8007 23.3333 21.2246 23.3333 21.6667C23.3333 22.1087 23.5089 22.5326 23.8215 22.8452C24.134 23.1577 24.558 23.3333 25 23.3333H27.5C27.721 23.3333 27.933 23.2455 28.0893 23.0893C28.2455 22.933 28.3333 22.721 28.3333 22.5V20.8333C28.3333 20.6123 28.2455 20.4004 28.0893 20.2441C27.933 20.0878 27.721 20 27.5 20Z" stroke="#14181F" stroke-width="1.66667" stroke-linecap="round" stroke-linejoin="round"/>
<path d="M12.5 14.1667V25.8333C12.5 26.2754 12.6756 26.6993 12.9882 27.0118C13.3007 27.3244 13.7246 27.5 14.1667 27.5H26.6667C26.8877 27.5 27.0996 27.4122 27.2559 27.2559C27.4122 27.0996 27.5 26.8877 27.5 26.6667V23.3333" stroke="#14181F" stroke-width="1.66667" stroke-linecap="round" stroke-linejoin="round"/>
<defs>
<linearGradient id="paint0_linear_1_1945" x1="0" y1="0" x2="40" y2="40" gradientUnits="userSpaceOnUse">
<stop stop-color="#3EE0CF"/>
<stop offset="1" stop-color="#B870DB"/>
</linearGradient>
</defs>
</svg>
